<svg width="473" height="636" viewBox="0 0 473 636" fill="none" xmlns="http://www.w3.org/2000/svg">
<g id="Box" filter="url(#filter0_d_10:20)">
<path fill-rule="evenodd" clip-rule="evenodd" d="M84 0C39.8172 0 4 35.8172 4 80V548C4 592.183 39.8172 628 83.9999 628H388.664C432.846 628 468.664 592.183 468.664 548V80C468.664 35.8172 432.846 0 388.664 0H84ZM72 39C44.3858 39 22 61.3857 22 89V539C22 566.614 44.3858 589 72 589H400C427.614 589 450 566.614 450 539V89C450 61.3858 427.614 39 400 39H72Z" fill="#433E3E"/>
</g>
<defs>
<filter id="filter0_d_10:20" x="0" y="0" width="472.664" height="636" filterUnits="userSpaceOnUse" color-interpolation-filters="sRGB">
<feFlood flood-opacity="0" result="BackgroundImageFix"/>
<feColorMatrix in="SourceAlpha" type="matrix" values="0 0 0 0 0 0 0 0 0 0 0 0 0 0 0 0 0 0 127 0" result="hardAlpha"/>
<feOffset dy="4"/>
<feGaussianBlur stdDeviation="2"/>
<feComposite in2="hardAlpha" operator="out"/>
<feColorMatrix type="matrix" values="0 0 0 0 0 0 0 0 0 0 0 0 0 0 0 0 0 0 0.25 0"/>
<feBlend mode="normal" in2="BackgroundImageFix" result="effect1_dropShadow_10:20"/>
<feBlend mode="normal" in="SourceGraphic" in2="effect1_dropShadow_10:20" result="shape"/>
</filter>
</defs>
</svg>
