<svg width="26" height="30" viewBox="0 0 26 30" fill="none" xmlns="http://www.w3.org/2000/svg">
<path d="M9.84929 0.934336L8.28234 2.37264L20.2905 7.91367L13.9889 1.08641C12.8841 -0.0847069 11.0398 -0.177639 9.84929 0.934336ZM2.80389 29.1359L21.7386 29.8729C22.3117 29.9018 22.8808 29.7625 23.3758 29.4723C23.8708 29.182 24.2702 28.7534 24.5248 28.2391C24.6844 27.8934 24.7836 27.5036 24.7968 27.0904L25.2633 15.4182C25.3113 14.2306 24.6095 13.1648 23.6377 12.6841C23.2981 12.5113 22.8818 12.3998 22.4808 12.36L3.52156 11.6762C2.94815 11.6396 2.37699 11.7764 1.88243 12.0689C1.38786 12.3614 0.992796 12.796 0.748646 13.3161C0.589104 13.6619 0.50935 14.0444 0.475626 14.4321L0.0152527 26.091C-0.018535 26.8645 0.256243 27.6198 0.779174 28.1908C1.30211 28.7618 2.03038 29.1017 2.80389 29.1359ZM7.66067 5.32781C6.9553 5.00233 6.14952 4.97038 5.42059 5.239C4.69166 5.50762 4.0993 6.0548 3.77381 6.76017L2.88406 8.68839L16.0916 9.21819" fill="#8B8C89"/>
</svg>
