<svg width="23" height="19" viewBox="0 0 23 19" fill="none" xmlns="http://www.w3.org/2000/svg">
<path d="M17.6923 3.45455H1.76923C1.3 3.45455 0.849991 3.63653 0.518196 3.96045C0.1864 4.28438 0 4.72372 0 5.18182V17.2727C0 17.7308 0.1864 18.1702 0.518196 18.4941C0.849991 18.818 1.3 19 1.76923 19H17.6923C18.1615 19 18.6115 18.818 18.9433 18.4941C19.2751 18.1702 19.4615 17.7308 19.4615 17.2727V5.18182C19.4615 4.72372 19.2751 4.28438 18.9433 3.96045C18.6115 3.63653 18.1615 3.45455 17.6923 3.45455ZM17.6923 17.2727H1.76923V5.18182H17.6923V17.2727ZM23 1.72727V14.6818C23 14.9109 22.9068 15.1305 22.7409 15.2925C22.575 15.4545 22.35 15.5455 22.1154 15.5455C21.8808 15.5455 21.6558 15.4545 21.4899 15.2925C21.324 15.1305 21.2308 14.9109 21.2308 14.6818V1.72727H4.42308C4.18846 1.72727 3.96346 1.63628 3.79756 1.47432C3.63166 1.31236 3.53846 1.09269 3.53846 0.863636C3.53846 0.634586 3.63166 0.414917 3.79756 0.252953C3.96346 0.0909902 4.18846 0 4.42308 0H21.2308C21.7 0 22.15 0.18198 22.4818 0.505906C22.8136 0.829833 23 1.26917 23 1.72727Z" fill="#433E3E"/>
</svg>
