<svg width="38" height="31" viewBox="0 0 38 31" fill="none" xmlns="http://www.w3.org/2000/svg">
<path d="M37.628 0.887101H10.4612C10.2565 0.887101 10.089 1.04678 10.089 1.24194V3.72582C10.089 3.92099 10.2565 4.08066 10.4612 4.08066H37.628C37.8326 4.08066 38.0001 3.92099 38.0001 3.72582V1.24194C38.0001 1.04678 37.8326 0.887101 37.628 0.887101ZM37.628 13.4839H10.4612C10.2565 13.4839 10.089 13.6436 10.089 13.8388V16.3227C10.089 16.5178 10.2565 16.6775 10.4612 16.6775H37.628C37.8326 16.6775 38.0001 16.5178 38.0001 16.3227V13.8388C38.0001 13.6436 37.8326 13.4839 37.628 13.4839ZM37.628 26.0808H10.4612C10.2565 26.0808 10.089 26.2404 10.089 26.4356V28.9195C10.089 29.1146 10.2565 29.2743 10.4612 29.2743H37.628C37.8326 29.2743 38.0001 29.1146 38.0001 28.9195V26.4356C38.0001 26.2404 37.8326 26.0808 37.628 26.0808ZM0.0410156 2.48388C0.0410156 2.81007 0.108397 3.13306 0.239312 3.43442C0.370228 3.73578 0.562113 4.0096 0.804013 4.24025C1.04591 4.4709 1.33309 4.65386 1.64915 4.77869C1.96521 4.90352 2.30395 4.96776 2.64605 4.96776C2.98815 4.96776 3.3269 4.90352 3.64296 4.77869C3.95901 4.65386 4.24619 4.4709 4.48809 4.24025C4.72999 4.0096 4.92188 3.73578 5.05279 3.43442C5.18371 3.13306 5.25109 2.81007 5.25109 2.48388C5.25109 2.15769 5.18371 1.8347 5.05279 1.53334C4.92188 1.23198 4.72999 0.958162 4.48809 0.727512C4.24619 0.496863 3.95901 0.313901 3.64296 0.189074C3.3269 0.0642473 2.98815 0 2.64605 0C2.30395 0 1.96521 0.0642473 1.64915 0.189074C1.33309 0.313901 1.04591 0.496863 0.804013 0.727512C0.562113 0.958162 0.370228 1.23198 0.239312 1.53334C0.108397 1.8347 0.0410156 2.15769 0.0410156 2.48388ZM0.0410156 15.0807C0.0410156 15.4069 0.108397 15.7299 0.239312 16.0313C0.370228 16.3326 0.562113 16.6064 0.804013 16.8371C1.04591 17.0677 1.33309 17.2507 1.64915 17.3755C1.96521 17.5003 2.30395 17.5646 2.64605 17.5646C2.98815 17.5646 3.3269 17.5003 3.64296 17.3755C3.95901 17.2507 4.24619 17.0677 4.48809 16.8371C4.72999 16.6064 4.92188 16.3326 5.05279 16.0313C5.18371 15.7299 5.25109 15.4069 5.25109 15.0807C5.25109 14.7545 5.18371 14.4315 5.05279 14.1302C4.92188 13.8288 4.72999 13.555 4.48809 13.3243C4.24619 13.0937 3.95901 12.9107 3.64296 12.7859C3.3269 12.6611 2.98815 12.5968 2.64605 12.5968C2.30395 12.5968 1.96521 12.6611 1.64915 12.7859C1.33309 12.9107 1.04591 13.0937 0.804013 13.3243C0.562113 13.555 0.370228 13.8288 0.239312 14.1302C0.108397 14.4315 0.0410156 14.7545 0.0410156 15.0807ZM0.0410156 27.6775C0.0410156 28.0037 0.108397 28.3267 0.239312 28.6281C0.370228 28.9294 0.562113 29.2033 0.804013 29.4339C1.04591 29.6646 1.33309 29.8475 1.64915 29.9724C1.96521 30.0972 2.30395 30.1614 2.64605 30.1614C2.98815 30.1614 3.3269 30.0972 3.64296 29.9724C3.95901 29.8475 4.24619 29.6646 4.48809 29.4339C4.72999 29.2033 4.92188 28.9294 5.05279 28.6281C5.18371 28.3267 5.25109 28.0037 5.25109 27.6775C5.25109 27.3514 5.18371 27.0284 5.05279 26.727C4.92188 26.4256 4.72999 26.1518 4.48809 25.9212C4.24619 25.6905 3.95901 25.5076 3.64296 25.3827C3.3269 25.2579 2.98815 25.1937 2.64605 25.1937C2.30395 25.1937 1.96521 25.2579 1.64915 25.3827C1.33309 25.5076 1.04591 25.6905 0.804013 25.9212C0.562113 26.1518 0.370228 26.4256 0.239312 26.727C0.108397 27.0284 0.0410156 27.3514 0.0410156 27.6775Z" fill="#433E3E"/>
</svg>
