<svg width="34" height="36" viewBox="0 0 34 36" fill="none" xmlns="http://www.w3.org/2000/svg">
<path d="M5.66676 0.914551C4.16384 0.914551 2.72248 1.51656 1.65975 2.58814C0.597032 3.65972 0 5.11309 0 6.62853V29.4845C0 30.9999 0.597032 32.4533 1.65975 33.5249C2.72248 34.5964 4.16384 35.1984 5.66676 35.1984H15.1114C15.6123 35.1984 16.0928 34.9978 16.447 34.6406C16.8013 34.2834 17.0003 33.7989 17.0003 33.2938C17.0003 32.7886 16.8013 32.3042 16.447 31.947C16.0928 31.5898 15.6123 31.3891 15.1114 31.3891H5.66676C5.16578 31.3891 4.68533 31.1884 4.33109 30.8313C3.97685 30.4741 3.77784 29.9896 3.77784 29.4845V6.62853C3.77784 6.12338 3.97685 5.63893 4.33109 5.28173C4.68533 4.92454 5.16578 4.72387 5.66676 4.72387H15.1114C15.6123 4.72387 16.0928 4.5232 16.447 4.16601C16.8013 3.80882 17.0003 3.32436 17.0003 2.81921C17.0003 2.31406 16.8013 1.82961 16.447 1.47241C16.0928 1.11522 15.6123 0.914551 15.1114 0.914551H5.66676Z" fill="#433E3E"/>
<path d="M23.2205 9.09085C23.5747 8.73378 24.0551 8.53319 24.5559 8.53319C25.0568 8.53319 25.5372 8.73378 25.8914 9.09085L33.4471 16.7095C33.8012 17.0667 34.0001 17.551 34.0001 18.0561C34.0001 18.5611 33.8012 19.0455 33.4471 19.4027L25.8914 27.0213C25.5351 27.3683 25.058 27.5602 24.5627 27.5559C24.0675 27.5516 23.5937 27.3513 23.2435 26.9981C22.8933 26.645 22.6946 26.1673 22.6903 25.6679C22.686 25.1685 22.8764 24.6874 23.2205 24.3281L27.5518 19.9607H13.2224C12.7214 19.9607 12.241 19.7601 11.8867 19.4029C11.5325 19.0457 11.3335 18.5612 11.3335 18.0561C11.3335 17.5509 11.5325 17.0665 11.8867 16.7093C12.241 16.3521 12.7214 16.1514 13.2224 16.1514H27.5518L23.2205 11.784C22.8663 11.4269 22.6674 10.9425 22.6674 10.4374C22.6674 9.93239 22.8663 9.44802 23.2205 9.09085V9.09085Z" fill="#433E3E"/>
</svg>
