<svg width="25" height="25" viewBox="0 0 25 25" fill="none" xmlns="http://www.w3.org/2000/svg">
<path d="M10.6906 21.3812C13.0626 21.3807 15.3662 20.5867 17.2346 19.1255L23.1091 25L24.9987 23.1104L19.1242 17.2359C20.5861 15.3673 21.3807 13.0632 21.3812 10.6906C21.3812 4.79608 16.5851 0 10.6906 0C4.79608 0 0 4.79608 0 10.6906C0 16.5851 4.79608 21.3812 10.6906 21.3812ZM10.6906 2.67265C15.1125 2.67265 18.7086 6.26871 18.7086 10.6906C18.7086 15.1125 15.1125 18.7086 10.6906 18.7086C6.26871 18.7086 2.67265 15.1125 2.67265 10.6906C2.67265 6.26871 6.26871 2.67265 10.6906 2.67265Z" fill="#D8DAD9"/>
<path d="M12.5774 8.80108C13.0839 9.30888 13.3632 9.97972 13.3632 10.6906H16.0358C16.037 9.98831 15.899 9.2927 15.6297 8.64404C15.3604 7.99538 14.9652 7.40652 14.467 6.91151C12.4438 4.89099 8.93592 4.89099 6.91406 6.91151L8.80096 8.80375C9.81656 7.79082 11.5672 7.79349 12.5774 8.80108Z" fill="#D8DAD9"/>
</svg>
