<svg width="9" height="15" viewBox="0 0 9 15" fill="none" xmlns="http://www.w3.org/2000/svg">
<path d="M0.80157 0.804142L0.802005 0.803707C1.07535 0.53036 1.5221 0.538164 1.77473 0.79079L7.70348 6.71954L7.70391 6.71997C7.76781 6.78374 7.8185 6.85948 7.85309 6.94286C7.88768 7.02624 7.90548 7.11563 7.90548 7.2059C7.90548 7.29617 7.88768 7.38556 7.85309 7.46894C7.8185 7.55232 7.76781 7.62806 7.70391 7.69183L7.70348 7.69226L1.77473 13.621C1.64574 13.75 1.47079 13.8225 1.28837 13.8225C1.10594 13.8225 0.930994 13.75 0.802005 13.621C0.673014 13.492 0.600547 13.3171 0.600547 13.1346C0.600547 12.9522 0.673013 12.7773 0.802005 12.6483L5.81367 7.63662L6.23793 7.21236L5.81367 6.7881L0.802005 1.77643L0.801569 1.77599C0.737673 1.71223 0.68698 1.63649 0.652392 1.5531C0.617804 1.46972 0.6 1.38034 0.6 1.29007C0.6 1.1998 0.617804 1.11041 0.652392 1.02703C0.68698 0.943649 0.737673 0.867907 0.80157 0.804142Z" fill="#a7a7a7" stroke="#a7a7a7" stroke-width="1.2"/>
</svg>
