<svg width="9" height="15" viewBox="0 0 9 15" fill="none" xmlns="http://www.w3.org/2000/svg">
<path d="M7.70392 0.804142L7.70349 0.803707C7.43014 0.53036 6.98339 0.538164 6.73077 0.79079L0.802018 6.71954L0.801582 6.71997C0.737685 6.78374 0.686992 6.85948 0.652404 6.94286C0.617817 7.02624 0.600013 7.11563 0.600013 7.2059C0.600013 7.29617 0.617817 7.38556 0.652404 7.46894C0.686992 7.55232 0.737685 7.62806 0.801582 7.69183L0.802017 7.69226L6.73077 13.621C6.85976 13.75 7.03471 13.8225 7.21713 13.8225C7.39955 13.8225 7.5745 13.75 7.70349 13.621C7.83248 13.492 7.90495 13.3171 7.90495 13.1346C7.90495 12.9522 7.83248 12.7773 7.70349 12.6483L2.69182 7.63662L2.26756 7.21236L2.69182 6.7881L7.70349 1.77643L7.70392 1.77599C7.76782 1.71223 7.81851 1.63649 7.8531 1.5531C7.88769 1.46972 7.90549 1.38034 7.90549 1.29007C7.90549 1.1998 7.88769 1.11041 7.8531 1.02703C7.81851 0.943649 7.76782 0.867907 7.70392 0.804142Z" fill="#a7a7a7" stroke="#a7a7a7"  stroke-width="1.2"/>
</svg>
