<svg width="19" height="19" viewBox="0 0 19 19" fill="none" xmlns="http://www.w3.org/2000/svg">
<path d="M9.5 12C11.433 12 13 10.433 13 8.5C13 6.567 11.433 5 9.5 5C7.567 5 6 6.567 6 8.5C6 10.433 7.567 12 9.5 12Z" stroke="#433E3E" stroke-width="1.6"/>
<path d="M14 16.5C14 14.8431 11.1569 14 9.5 14C7.84315 14 5 14.8431 5 16.5" stroke="#433E3E" stroke-width="1.6"/>
<path d="M9.5 18C14.1944 18 18 14.1944 18 9.5C18 4.80558 14.1944 1 9.5 1C4.80558 1 1 4.80558 1 9.5C1 14.1944 4.80558 18 9.5 18Z" stroke="#433E3E" stroke-width="1.6"/>
</svg>
