<svg width="19" height="14" viewBox="0 0 19 14" fill="none" xmlns="http://www.w3.org/2000/svg">
<path d="M6.64075 13.0375C6.4852 13.0375 6.33936 13.013 6.20325 12.964C6.06714 12.9158 5.94075 12.8333 5.82409 12.7167L0.807419 7.7C0.59353 7.48611 0.491252 7.20883 0.500585 6.86817C0.510696 6.52828 0.622696 6.25139 0.836585 6.0375C1.05047 5.82361 1.3227 5.71667 1.65325 5.71667C1.98381 5.71667 2.25603 5.82361 2.46992 6.0375L6.64075 10.2083L16.5283 0.320833C16.7421 0.106945 17.0194 0 17.3601 0C17.7 0 17.9769 0.106945 18.1908 0.320833C18.4046 0.534722 18.5116 0.811611 18.5116 1.1515C18.5116 1.49217 18.4046 1.76944 18.1908 1.98333L7.45742 12.7167C7.34075 12.8333 7.21436 12.9158 7.07825 12.964C6.94214 13.013 6.79631 13.0375 6.64075 13.0375V13.0375Z" fill="#a7a7a7" />
</svg>
